<?xml version="1.0" encoding="UTF-8" standalone="no"?>
<svg width="40px" height="41px" viewBox="0 0 40 41" version="1.1" xmlns="http://www.w3.org/2000/svg" xmlns:xlink="http://www.w3.org/1999/xlink">
    <!-- Generator: Sketch 43.2 (39069) - http://www.bohemiancoding.com/sketch -->
    <title>calendar</title>
    <desc>Created with Sketch.</desc>
    <defs>
        <polygon id="path-1" points="0.00628272251 0.0827321429 0.00628272251 36.3981684 39.9856545 36.3981684 39.9856545 0.0827321429 0.00628272251 0.0827321429"></polygon>
    </defs>
    <g id="Sessions-2" stroke="none" stroke-width="1" fill="none" fill-rule="evenodd">
        <g id="Session-2_1--date" transform="translate(-839.000000, -895.000000)">
            <g id="calendar" transform="translate(839.000000, 895.000000)">
                <path d="M14.4453403,22.5843061 C14.4453403,22.0727474 14.0301571,21.6580408 13.5172775,21.6580408 L10.278534,21.6580408 C9.76649215,21.6580408 9.35089005,22.0727474 9.35089005,22.5843061 L9.35089005,25.8188087 C9.35089005,26.3312041 9.76649215,26.7459107 10.278534,26.7459107 L13.5172775,26.7459107 C14.0301571,26.7459107 14.4453403,26.3312041 14.4453403,25.8188087 L14.4453403,22.5843061 Z" id="Fill-1" fill="#1e92c1"></path>
                <path d="M22.5401047,22.5843061 C22.5401047,22.0727474 22.1245026,21.6580408 21.6127749,21.6580408 L18.3732984,21.6580408 C17.8611518,21.6580408 17.4455497,22.0727474 17.4455497,22.5843061 L17.4455497,25.8188087 C17.4455497,26.3312041 17.8611518,26.7459107 18.3732984,26.7459107 L21.6127749,26.7459107 C22.1245026,26.7459107 22.5401047,26.3312041 22.5401047,25.8188087 L22.5401047,22.5843061 Z" id="Fill-2" fill="#1e92c1"></path>
                <path d="M30.6351832,22.5843061 C30.6351832,22.0727474 30.2196859,21.6580408 29.7075393,21.6580408 L26.468377,21.6580408 C25.9559162,21.6580408 25.5403141,22.0727474 25.5403141,22.5843061 L25.5403141,25.8188087 C25.5403141,26.3312041 25.9559162,26.7459107 26.468377,26.7459107 L29.7075393,26.7459107 C30.2196859,26.7459107 30.6351832,26.3312041 30.6351832,25.8188087 L30.6351832,22.5843061 Z" id="Fill-3" fill="#1e92c1"></path>
                <path d="M14.4453403,30.6705102 C14.4453403,30.157801 14.0301571,29.7435128 13.5172775,29.7435128 L10.278534,29.7435128 C9.76649215,29.7435128 9.35089005,30.157801 9.35089005,30.6705102 L9.35089005,33.904699 C9.35089005,34.416676 9.76649215,34.8312781 10.278534,34.8312781 L13.5172775,34.8312781 C14.0301571,34.8312781 14.4453403,34.416676 14.4453403,33.904699 L14.4453403,30.6705102 Z" id="Fill-4" fill="#1e92c1"></path>
                <path d="M22.5401047,30.6705102 C22.5401047,30.157801 22.1245026,29.7435128 21.6127749,29.7435128 L18.3732984,29.7435128 C17.8611518,29.7435128 17.4455497,30.157801 17.4455497,30.6705102 L17.4455497,33.904699 C17.4455497,34.416676 17.8611518,34.8312781 18.3732984,34.8312781 L21.6127749,34.8312781 C22.1245026,34.8312781 22.5401047,34.416676 22.5401047,33.904699 L22.5401047,30.6705102 Z" id="Fill-5" fill="#1e92c1"></path>
                <g id="Group-9" transform="translate(0.000000, 4.497449)">
                    <mask id="mask-2" fill="white">
                        <use xlink:href="#path-1"></use>
                    </mask>
                    <g id="Clip-7"></g>
                    <path d="M30.6351832,26.1730612 C30.6351832,25.660352 30.2196859,25.2460638 29.7079581,25.2460638 L26.468377,25.2460638 C25.9559162,25.2460638 25.5403141,25.660352 25.5403141,26.1730612 L25.5403141,29.40725 C25.5403141,29.919227 25.9559162,30.3338291 26.468377,30.3338291 L29.7079581,30.3338291 C30.2196859,30.3338291 30.6351832,29.919227 30.6351832,29.40725 L30.6351832,26.1730612 Z" id="Fill-6" fill="#1e92c1" mask="url(#mask-2)"></path>
                    <path d="M36.4267016,0.100721939 L36.4267016,5.04143112 C36.4267016,7.27467602 34.6126702,9.07438776 32.3772775,9.07438776 L29.8229319,9.07438776 C27.5871204,9.07438776 25.7493194,7.27467602 25.7493194,5.04143112 L25.7493194,0.0827321429 L14.2363351,0.0827321429 L14.2363351,5.04143112 C14.2363351,7.27467602 12.398534,9.07438776 10.1632461,9.07438776 L7.60837696,9.07438776 C5.37298429,9.07438776 3.55937173,7.27467602 3.55937173,5.04143112 L3.55937173,0.100721939 C1.60544503,0.159502551 0,1.77419133 0,3.75892602 L0,32.7149668 C0,34.7373546 1.64104712,36.3981684 3.66534031,36.3981684 L36.3203141,36.3981684 C38.3417801,36.3981684 39.9856545,34.7336939 39.9856545,32.7149668 L39.9856545,3.75892602 C39.9856545,1.77419133 38.3802094,0.159502551 36.4267016,0.100721939 Z M35.2401047,30.9120128 C35.2401047,31.7858776 34.5308901,32.494801 33.6554974,32.494801 L6.26020942,32.494801 C5.38534031,32.494801 4.67560209,31.7858776 4.67560209,30.9120128 L4.67560209,15.9549617 C4.67560209,15.0809923 5.38492147,14.3717551 6.26020942,14.3717551 L33.6554974,14.3717551 C34.5308901,14.3717551 35.2401047,15.0809923 35.2401047,15.9549617 L35.2401047,30.9120128 Z" id="Fill-8" fill="#1e92c1" mask="url(#mask-2)"></path>
                </g>
                <path d="M7.59937173,10.9230485 L10.1259686,10.9230485 C10.8928796,10.9230485 11.5146597,10.3029235 11.5146597,9.53689286 L11.5146597,1.43667347 C11.5146597,0.670642857 10.8928796,0.049994898 10.1259686,0.049994898 L7.59937173,0.049994898 C6.83246073,0.049994898 6.21068063,0.670642857 6.21068063,1.43667347 L6.21068063,9.53689286 C6.21068063,10.3029235 6.83246073,10.9230485 7.59937173,10.9230485 Z" id="Fill-10" fill="#1e92c1"></path>
                <path d="M29.7905759,10.9230485 L32.3171728,10.9230485 C33.0836649,10.9230485 33.705445,10.3029235 33.705445,9.53689286 L33.705445,1.43667347 C33.705445,0.670642857 33.0836649,0.049994898 32.3171728,0.049994898 L29.7905759,0.049994898 C29.0236649,0.049994898 28.4018848,0.670642857 28.4018848,1.43667347 L28.4018848,9.53689286 C28.4018848,10.3029235 29.0236649,10.9230485 29.7905759,10.9230485 Z" id="Fill-11" fill="#1e92c1"></path>
            </g>
        </g>
    </g>
</svg>