<?xml version="1.0" encoding="UTF-8" standalone="no"?>
<svg width="40px" height="40px" viewBox="0 0 40 40" version="1.1" xmlns="http://www.w3.org/2000/svg" xmlns:xlink="http://www.w3.org/1999/xlink">
    <!-- Generator: Sketch 43.2 (39069) - http://www.bohemiancoding.com/sketch -->
    <title>cog</title>
    <desc>Created with Sketch.</desc>
    <defs></defs>
    <g id="Sessions-2" stroke="none" stroke-width="1" fill="none" fill-rule="evenodd">
        <g id="Dashboard-first-session" transform="translate(-1374.000000, -29.000000)" fill="#1E92C1">
            <path d="M1413.44317,45.2439216 C1413.30376,45.0647059 1413.12436,44.9576471 1412.9002,44.9239216 L1408.17703,44.2082353 C1407.91881,43.3905882 1407.56594,42.5556863 1407.11881,41.7039216 C1407.42812,41.2780392 1407.89228,40.6776471 1408.51129,39.9007843 C1409.13149,39.1258824 1409.56911,38.5588235 1409.82772,38.2019608 C1409.96515,38.0137255 1410.03485,37.8188235 1410.03485,37.6137255 C1410.03485,37.374902 1409.97465,37.1878431 1409.85386,37.0513725 C1409.23366,36.1815686 1407.81505,34.7337255 1405.59485,32.7054902 C1405.38931,32.5356863 1405.17267,32.4513725 1404.9497,32.4513725 C1404.69149,32.4513725 1404.48436,32.5278431 1404.3295,32.6811765 L1400.66455,35.4156863 C1399.95921,35.0572549 1399.18416,34.7415686 1398.34099,34.4690196 L1397.61861,29.767451 C1397.60158,29.5454902 1397.50257,29.3615686 1397.32158,29.2176471 C1397.14059,29.0721569 1396.9299,29 1396.68871,29 L1390.95842,29 C1390.4602,29 1390.14931,29.2392157 1390.0305,29.7152941 C1389.80594,30.5670588 1389.55683,32.152549 1389.28158,34.4690196 C1388.47248,34.7262745 1387.6895,35.0494118 1386.93149,35.4415686 L1383.3703,32.7054902 C1383.14614,32.5356863 1382.92317,32.4513725 1382.69901,32.4513725 C1382.32,32.4513725 1381.50772,33.0596078 1380.25941,34.2788235 C1379.01228,35.4968627 1378.16475,36.4129412 1377.71762,37.0254902 C1377.56277,37.247451 1377.48554,37.4435294 1377.48554,37.6137255 C1377.48554,37.8188235 1377.57069,38.0227451 1377.74218,38.2266667 C1378.89624,39.6066667 1379.81703,40.7831373 1380.50535,41.7545098 C1380.07525,42.5388235 1379.73941,43.3231373 1379.49822,44.1058824 L1374.69782,44.8211765 C1374.50733,44.8564706 1374.34495,44.9666667 1374.20713,45.1537255 C1374.06812,45.3419608 1374,45.5380392 1374,45.7419608 L1374,51.4156863 C1374,51.6380392 1374.06812,51.8372549 1374.20713,52.0164706 C1374.34495,52.1956863 1374.52436,52.3027451 1374.74891,52.3364706 L1379.47327,53.027451 C1379.71327,53.8623529 1380.06574,54.7047059 1380.53149,55.5564706 C1380.22059,55.9823529 1379.75644,56.5827451 1379.13782,57.3580392 C1378.51723,58.1345098 1378.07802,58.7 1377.82099,59.0584314 C1377.68356,59.2466667 1377.61386,59.4411765 1377.61386,59.6466667 C1377.61386,59.8670588 1377.67406,60.0631373 1377.79485,60.2333333 C1378.46614,61.1537255 1379.88475,62.5862745 1382.05386,64.5286275 C1382.24238,64.7152941 1382.45901,64.8090196 1382.69901,64.8090196 C1382.95723,64.8090196 1383.17228,64.7321569 1383.34416,64.5792157 L1386.98416,61.8447059 C1387.6895,62.2015686 1388.46455,62.5172549 1389.30772,62.7898039 L1390.0305,67.492549 C1390.04752,67.714902 1390.14653,67.8988235 1390.32752,68.0427451 C1390.50851,68.1882353 1390.71881,68.26 1390.96,68.26 L1396.6903,68.26 C1397.1901,68.26 1397.49941,68.0211765 1397.6202,67.5447059 C1397.84277,66.6913725 1398.09347,65.107451 1398.36871,62.7898039 C1399.17624,62.5341176 1399.96079,62.2109804 1400.71723,61.8188235 L1404.28,64.5792157 C1404.5196,64.7321569 1404.74416,64.8090196 1404.95129,64.8090196 C1405.32871,64.8090196 1406.13782,64.2054902 1407.37703,62.9952941 C1408.61624,61.785098 1409.46733,60.8643137 1409.93149,60.2333333 C1410.08752,60.0631373 1410.16475,59.8670588 1410.16475,59.6466667 C1410.16475,59.4243137 1410.07842,59.2113725 1409.90653,59.0078431 C1408.66733,57.5082353 1407.74693,56.3317647 1407.14376,55.48 C1407.48871,54.8486275 1407.82416,54.0737255 1408.1505,53.1545098 L1412.92634,52.4392157 C1413.13228,52.4039216 1413.30535,52.2937255 1413.44317,52.1066667 C1413.58059,51.9184314 1413.64871,51.7223529 1413.64871,51.5184314 L1413.64871,45.8443137 C1413.64871,45.6223529 1413.58059,45.4231373 1413.44317,45.2439216 Z M1398.49703,53.2572549 C1397.20713,54.5345098 1395.64911,55.1733333 1393.82535,55.1733333 C1392.00119,55.1733333 1390.44356,54.5345098 1389.15327,53.2572549 C1387.86139,51.9780392 1387.21624,50.4368627 1387.21624,48.6309804 C1387.21624,46.8231373 1387.86139,45.2823529 1389.15327,44.0031373 C1390.44356,42.7254902 1392.00119,42.0866667 1393.82535,42.0866667 C1395.64911,42.0866667 1397.20713,42.7254902 1398.49703,44.0031373 C1399.78733,45.2823529 1400.43248,46.8231373 1400.43248,48.6309804 C1400.43248,50.4368627 1399.78733,51.9780392 1398.49703,53.2572549 Z" id="cog"></path>
        </g>
    </g>
</svg>