<?xml version="1.0" encoding="UTF-8" standalone="no"?>
<svg width="69px" height="69px" viewBox="0 0 69 69" version="1.1" xmlns="http://www.w3.org/2000/svg" xmlns:xlink="http://www.w3.org/1999/xlink">
    <!-- Generator: Sketch 43.2 (39069) - http://www.bohemiancoding.com/sketch -->
    <title>happy</title>
    <desc>Created with Sketch.</desc>
    <defs>
        <polygon id="path-1" points="0.0100428484 0.071814978 0.0100428484 74.9954273 74.8963831 74.9954273 74.8963831 0.071814978 0.0100428484 0.071814978"></polygon>
    </defs>
    <g id="Sessions-2" stroke="none" stroke-width="1" fill="none" fill-rule="evenodd">
        <g id="Session-2_1--emoji-2" transform="translate(-542.000000, -878.000000)">
            <g id="emoticons" transform="translate(539.000000, 875.000000)">
                <g id="happy">
                    <g id="Group-6">
                        <mask id="mask-2" fill="white">
                            <use xlink:href="#path-1"></use>
                        </mask>
                        <g id="Clip-4"></g>
                        <path d="M37.4481079,3.68064317 C18.7884955,3.68064317 3.60655424,18.8670837 3.60655424,37.5342907 C3.60655424,56.2014978 18.7884955,71.3884405 37.4481079,71.3884405 C56.1092266,71.3884405 71.2898289,56.2014978 71.2898289,37.5342907 C71.2898289,18.8670837 56.1078876,3.68064317 37.4481079,3.68064317 Z" id="Fill-5" fill="#FFFFFF" mask="url(#mask-2)"></path>
                        <path d="M54.9454279,27.5104934 C54.4837916,27.5104934 54.0221553,27.3338855 53.6698187,26.9815066 C51.9600238,25.2728458 49.1361422,25.2114097 47.4963125,26.8507665 C46.7928109,27.555022 45.6504369,27.555022 44.9455963,26.8507665 C44.2427643,26.1458414 44.2427643,25.0033304 44.9455963,24.2990749 C47.9663178,21.2779912 53.1290114,21.3369163 56.219698,24.4311542 C56.9245385,25.1349075 56.9245385,26.2779207 56.219698,26.9815066 C55.8678635,27.3338855 55.4068968,27.5104934 54.9454279,27.5104934 Z" id="Fill-3" fill="#1E92C1" mask="url(#mask-2)"></path>
                        <path d="M30.4149338,27.5104934 C29.9532975,27.5104934 29.4909917,27.3338855 29.1393246,26.9815066 C27.4295297,25.2728458 24.6049786,25.2114097 22.9651488,26.8507665 C22.2603082,27.555022 21.1194407,27.555022 20.4152696,26.8507665 C19.710429,26.1458414 19.710429,25.0033304 20.4152696,24.2990749 C23.4353215,21.2779912 28.5978477,21.3369163 31.6892038,24.4311542 C32.3940444,25.1349075 32.3940444,26.2779207 31.6892038,26.9815066 C31.3368672,27.3338855 30.875231,27.5104934 30.4149338,27.5104934 Z" id="Fill-2" fill="#1E92C1" mask="url(#mask-2)"></path>
                        <path d="M42.1264014,57.5263084 L35.635039,57.5263084 C27.3465088,57.5263084 20.8512966,51.1362819 20.8512966,42.978 C20.8512966,41.9821322 21.6594111,41.1739207 22.6546574,41.1739207 C23.6504058,41.1739207 24.4585204,41.9821322 24.4585204,42.978 C24.4585204,49.1130749 29.3674647,53.9179824 35.635039,53.9179824 L42.1264014,53.9179824 C48.3939757,53.9179824 53.30292,49.2190396 53.30292,43.2193921 C53.30292,42.2228546 54.1096955,41.415815 55.1062808,41.415815 C56.1020292,41.415815 56.9094743,42.2228546 56.9094743,43.2193921 C56.9101438,51.2422467 50.4149316,57.5263084 42.1264014,57.5263084 Z" id="Fill-1" fill="#1E92C1" mask="url(#mask-2)"></path>
                    </g>
                </g>
            </g>
        </g>
    </g>
</svg>