<?xml version="1.0" encoding="UTF-8" standalone="no"?>
<svg width="69px" height="69px" viewBox="0 0 69 69" version="1.1" xmlns="http://www.w3.org/2000/svg" xmlns:xlink="http://www.w3.org/1999/xlink">
    <!-- Generator: Sketch 43.2 (39069) - http://www.bohemiancoding.com/sketch -->
    <title>surprised</title>
    <desc>Created with Sketch.</desc>
    <defs>
        <polygon id="path-1" points="0.0100428484 0.071814978 0.0100428484 74.9954273 74.8963831 74.9954273 74.8963831 0.071814978 0.0100428484 0.071814978"></polygon>
    </defs>
    <g id="Sessions-2" stroke="none" stroke-width="1" fill="none" fill-rule="evenodd">
        <g id="Session-2_1--emoji-2" transform="translate(-651.000000, -878.000000)">
            <g id="emoticons" transform="translate(539.000000, 875.000000)">
                <g id="surprised" transform="translate(109.000000, 0.000000)">
                    <g id="Group-6">
                        <mask id="mask-2" fill="white">
                            <use xlink:href="#path-1"></use>
                        </mask>
                        <g id="Clip-4"></g>
                        <path d="M37.4481079,3.68064317 C18.7884955,3.68064317 3.60655424,18.8670837 3.60655424,37.5342907 C3.60655424,56.2014978 18.7884955,71.3884405 37.4481079,71.3884405 C56.1092266,71.3884405 71.2898289,56.2014978 71.2898289,37.5342907 C71.2898289,18.8670837 56.1092266,3.68064317 37.4481079,3.68064317 Z" id="Fill-5" fill="#FFFFFF" mask="url(#mask-2)"></path>
                    </g>
                    <path d="M55.0394959,52.7153744 L21.3743616,52.7153744 C20.3792827,52.7153744 19.5711682,51.907163 19.5711682,50.9112952 C19.5711682,49.9147577 20.3792827,49.1065463 21.3743616,49.1065463 L55.0394959,49.1065463 C56.0345748,49.1065463 56.8428567,49.9147577 56.8428567,50.9112952 C56.8428567,51.907163 56.0345748,52.7153744 55.0394959,52.7153744 Z" id="Fill-1" fill="#1E92C1"></path>
                    <path d="M54.1024981,27.7152247 C54.1024981,30.0980088 52.1717605,32.0296476 49.7899316,32.0296476 C47.4079354,32.0296476 45.4785368,30.0980088 45.4785368,27.7152247 C45.4785368,25.3329427 47.4079354,23.4019736 49.7899316,23.4019736 C52.1717605,23.4019736 54.1024981,25.3329427 54.1024981,27.7152247 Z" id="Fill-2" fill="#1E92C1"></path>
                    <path d="M29.307375,27.7152247 C29.307375,30.0980088 27.3766374,32.0296476 24.9959801,32.0296476 C22.6139839,32.0296476 20.6845853,30.0980088 20.6845853,27.7152247 C20.6845853,25.3329427 22.6139839,23.4019736 24.9959801,23.4019736 C27.377809,23.4019736 29.307375,25.3329427 29.307375,27.7152247 Z" id="Fill-3" fill="#1E92C1"></path>
                </g>
            </g>
        </g>
    </g>
</svg>