<?xml version="1.0" encoding="UTF-8" standalone="no"?>
<svg width="10px" height="19px" viewBox="0 0 10 19" version="1.1" xmlns="http://www.w3.org/2000/svg" xmlns:xlink="http://www.w3.org/1999/xlink">
    <!-- Generator: Sketch 43.2 (39069) - http://www.bohemiancoding.com/sketch -->
    <title>next</title>
    <desc>Created with Sketch.</desc>
    <defs>
        <polygon id="path-1" points="3.71287129e-05 0.0129692408 3.71287129e-05 18.9999005 9.9826395 18.9999005 9.9826395 0.0129692408 3.71287129e-05 0.0129692408"></polygon>
    </defs>
    <g id="Sessions-2" stroke="none" stroke-width="1" fill="none" fill-rule="evenodd">
        <g id="Dashboard-first-session" transform="translate(-794.000000, -423.000000)">
            <g id="Button" transform="translate(555.000000, 395.000000)">
                <g id="Group" transform="translate(82.000000, 26.000000)">
                    <g id="next" transform="translate(157.000000, 2.000000)">
                        <mask id="mask-2" fill="white">
                            <use xlink:href="#path-1"></use>
                        </mask>
                        <g id="Clip-2"></g>
                        <path d="M9.82866337,9.12805759 L0.913910891,0.171099476 C0.703910891,-0.0397408377 0.367425743,-0.0397408377 0.157425743,0.171099476 C-0.0524257426,0.382089005 -0.0524257426,0.720159686 0.157425743,0.931149215 L8.6919802,9.50591885 L0.157425743,18.0809372 C-0.0524257426,18.2917277 -0.0524257426,18.6299974 0.157425743,18.840788 C0.26049505,18.9443429 0.398960396,18.9999005 0.533712871,18.9999005 C0.668316832,18.9999005 0.806980198,18.9482225 0.909851485,18.840788 L9.82480198,9.8840288 C10.034604,9.6771178 10.034604,9.33496859 9.82866337,9.12805759 Z" id="Fill-1" fill="#FFFFFF" mask="url(#mask-2)"></path>
                    </g>
                </g>
            </g>
        </g>
    </g>
</svg>