<?xml version="1.0" encoding="UTF-8" standalone="no"?>
<svg width="104px" height="85px" viewBox="0 0 104 85" version="1.1" xmlns="http://www.w3.org/2000/svg" xmlns:xlink="http://www.w3.org/1999/xlink">
    <!-- Generator: Sketch 43.2 (39069) - http://www.bohemiancoding.com/sketch -->
    <title>Piggy</title>
    <desc>Created with Sketch.</desc>
    <defs></defs>
    <g id="Sessions-2" stroke="none" stroke-width="1" fill="none" fill-rule="evenodd">
        <g id="Dashboard-first-session" transform="translate(-1029.000000, -692.000000)" fill="#EF4467">
            <g id="piggy-bank" transform="translate(1029.000000, 668.000000)">
                <path d="M37.9057485,50.1038086 L64.0884454,50.1038086 L64.0884454,43.6281016 L37.9057485,43.6281016 L37.9057485,50.1038086 Z M28.3576907,55.3566719 C28.3576907,57.3180332 26.7563052,58.9076875 24.7809485,58.9076875 C22.8053773,58.9076875 21.2042062,57.3180332 21.2042062,55.3566719 C21.2042062,53.3955234 22.8053773,51.8056563 24.7809485,51.8056563 C26.7560907,51.8056563 28.3576907,53.3957363 28.3576907,55.3566719 Z M103.892569,62.3088281 L95.4074557,62.3088281 C93.7633979,45.6503496 79.5756536,32.5897227 62.3716948,32.5897227 L39.622499,32.5897227 C39.1115052,32.5897227 38.5985814,32.6014316 38.0852289,32.6250625 C35.5971629,27.5795547 30.3675711,24.2399395 24.5617979,24.2399395 L21.3004866,24.2399395 L21.3004866,38.062502 C16.062532,41.5117559 11.9008165,46.381416 9.33062268,52.0596348 L0,52.0596348 L0,79.0337285 L9.32654845,79.0337285 C11.2643794,83.3124043 14.1264165,87.168918 17.6935093,90.2862754 C21.2082804,93.3576484 25.3519835,95.6602734 29.7988948,97.0291602 L29.7988948,109 L48.2813031,109 L48.2813031,98.5038535 L53.7124619,98.5038535 L53.7124619,109 L72.1948701,109 L72.1948701,97.0325664 C78.4250062,95.1120801 84.0266392,91.3600957 88.1688412,86.2884023 C92.2533608,81.2876016 94.7652289,75.1689121 95.4038103,68.7845352 L103.892355,68.7845352 L103.892355,62.3088281 L103.892569,62.3088281 L103.892569,62.3088281 Z" id="Piggy"></path>
            </g>
        </g>
    </g>
</svg>