<?xml version="1.0" encoding="UTF-8" standalone="no"?>
<svg width="70px" height="70px" viewBox="0 0 70 70" version="1.1" xmlns="http://www.w3.org/2000/svg" xmlns:xlink="http://www.w3.org/1999/xlink">
    <!-- Generator: Sketch 43.2 (39069) - http://www.bohemiancoding.com/sketch -->
    <title>sad</title>
    <desc>Created with Sketch.</desc>
    <defs>
        <polygon id="path-1" points="0.0100428484 0.0108810573 0.0100428484 75.9996652 75.9607577 75.9996652 75.9607577 0.0108810573 0.0100428484 0.0108810573"></polygon>
    </defs>
    <g id="Sessions-2" stroke="none" stroke-width="1" fill="none" fill-rule="evenodd">
        <g id="Session-2_1--emoji-2" transform="translate(-759.000000, -878.000000)">
            <g id="emoticons" transform="translate(539.000000, 875.000000)">
                <g id="sad" transform="translate(217.000000, 0.000000)">
                    <g id="Group-6">
                        <mask id="mask-2" fill="white">
                            <use xlink:href="#path-1"></use>
                        </mask>
                        <g id="Clip-4"></g>
                        <path d="M37.9810484,3.61970925 C19.0265111,3.61970925 3.60722376,19.0448634 3.60722376,38.005022 C3.60722376,56.9663524 19.0265111,72.3915066 37.9810484,72.3915066 C56.9342466,72.3915066 72.3537013,56.9663524 72.3537013,38.005022 C72.3537013,19.0441938 56.9342466,3.61970925 37.9810484,3.61970925 Z" id="Fill-5" fill="#FFFFFF" mask="url(#mask-2)"></path>
                        <path d="M23.094032,60.760326 C22.0987858,60.760326 21.2906712,59.9534537 21.2906712,58.9562467 C21.2906712,51.1707665 27.5523872,44.8356476 35.2493936,44.8356476 L41.327995,44.8356476 C49.0255035,44.8356476 55.2873869,51.1354449 55.2873869,58.8784053 C55.2873869,59.8749427 54.480444,60.6831542 53.484026,60.6831542 C52.4882776,60.6831542 51.6815021,59.8749427 51.6815021,58.8784053 C51.6815021,53.1260088 47.0373543,48.4446432 41.3286645,48.4446432 L35.2493936,48.4446432 C29.5407038,48.4446432 24.897895,53.1593216 24.897895,58.9562467 C24.8972255,59.9534537 24.0897805,60.760326 23.094032,60.760326 Z" id="Path" fill="#1E92C1" mask="url(#mask-2)"></path>
                        <path d="M54.8819905,28.0399824 C54.8819905,30.4582555 52.923133,32.4180176 50.5051498,32.4180176 C48.0886731,32.4180176 46.129146,30.4582555 46.129146,28.0399824 C46.129146,25.6218767 48.0886731,23.6634537 50.5051498,23.6634537 C52.923133,23.6634537 54.8819905,25.6218767 54.8819905,28.0399824 Z" id="Fill-1" fill="#1E92C1" mask="url(#mask-2)"></path>
                        <path d="M29.7186296,28.0399824 C29.7186296,30.4582555 27.7591025,32.4180176 25.3424584,32.4180176 C22.9259817,32.4180176 20.9657851,30.4582555 20.9657851,28.0399824 C20.9657851,25.6218767 22.9259817,23.6634537 25.3424584,23.6634537 C27.7591025,23.6634537 29.7186296,25.6218767 29.7186296,28.0399824 Z" id="Fill-2" fill="#1E92C1" mask="url(#mask-2)"></path>
                    </g>
                </g>
            </g>
        </g>
    </g>
</svg>